# xmcd
#
# Track frame offsets:
#	150
#	41666
#	56652
#	72902
#	85914
#	111083
#	131923
#	151323
#	165208
#	187213
#	207206
#	227935
#	249942
#	265788
#	285278
#	323782
#	330790
#
# Disc length: 4756 seconds
#
# Revision: 0
# Processed by: cddbd v1.5.2PL0 Copyright (c) Steve Scherf et al.
# Submitted via: EasyCDDAExtractor 8.2.3.1
#
DISCID=e7129211
DTITLE=Various Artist - Blues On the Road  vol.2
DYEAR=2002
DGENRE=Blues
TTITLE0=STEVIE RAY VAUGHAN - Tin Pan Alley
TTITLE1=SAVOY BROWN - That's What Love Will Do
TTITLE2=JAMES SOLBERG - Let's Straighten It Out
TTITLE3=JON TIVEN GROUP - Inside Info
TTITLE4=JOHN CAMPBELL - One Believer
TTITLE5=RANDY BACHMAN - I Wanna Shelter You
TTITLE6=TINSLEY ELLIS - Sign of the Blues
TTITLE7=PAT BOYACK and The PROWLERS - Preacher Man
TTITLE8=BOB MARGOLIN - Lonesome Bedroom Blues
TTITLE9=LONG JOHN BALDRY - Right to Sing the Blues
TTITLE10=LITTLE MIKE and TORNADOES - Car of the Blues
TTITLE11=JIMMY THACKERY - Love to Ride
TTITLE12=OSCAR BENTON - Bensonhurst Blues
TTITLE13=DAVE HOLE - More Love  Less Attitude
TTITLE14=SNOWY WHITE - Midnight Blues
TTITLE15=TONY JOE WHITE - Wampus Kitty
TTITLE16=CHRIS COBB - Turning Your Love Away
EXTD=
EXTT0=
EXTT1=
EXTT2=
EXTT3=
EXTT4=
EXTT5=
EXTT6=
EXTT7=
EXTT8=
EXTT9=
EXTT10=
EXTT11=
EXTT12=
EXTT13=
EXTT14=
EXTT15=
EXTT16=
PLAYORDER=
